<svg width="900" height="700" viewBox="0 0 900 700" fill="none" xmlns="http://www.w3.org/2000/svg">
<path d="M130 230 C190 150 280 160 340 230 C410 310 500 210 590 260 C700 320 730 450 640 520 C550 590 440 520 350 560 C250 600 160 550 120 460 C90 390 80 300 130 230Z" fill="rgba(255,255,255,0.08)"/>
<path d="M260 150 C340 90 460 110 520 190 C590 280 720 250 780 350 C840 450 760 570 650 600 C540 630 500 520 410 510 C310 500 220 570 160 500 C90 420 130 240 260 150Z" stroke="rgba(255,255,255,0.12)" stroke-width="2"/>
</svg>